<?xml version="1.0" encoding="UTF-8" standalone="no"?>
<!DOCTYPE svg PUBLIC "-//W3C//DTD SVG 1.1//EN" "http://www.w3.org/Graphics/SVG/1.1/DTD/svg11.dtd">
<svg width="100%" height="100%" viewBox="0 0 600 600" version="1.1" xmlns="http://www.w3.org/2000/svg" xmlns:xlink="http://www.w3.org/1999/xlink" xml:space="preserve" xmlns:serif="http://www.serif.com/" style="fill-rule:evenodd;clip-rule:evenodd;stroke-linejoin:round;stroke-miterlimit:2;">
    <g transform="matrix(1,0,0,1,-743.625,0)">
        <g transform="matrix(0.75,0,0,1,106.125,0)">
            <rect id="ArtBoard2" x="850" y="0" width="800" height="600" style="fill:none;"/>
            <g id="ArtBoard21" serif:id="ArtBoard2">
                <g transform="matrix(1.55063,0,0,1.15151,633.019,17.4388)">
                    <g transform="matrix(0.866025,-0.5,0.5,0.866025,60.918,266.73)">
                        <path d="M200,100C183.333,83.333 116.667,83.333 100,100C83.333,116.667 83.333,183.333 100,200C116.667,216.667 183.333,216.667 200,200C216.667,183.333 216.667,116.667 200,100Z"/>
                    </g>
                    <g transform="matrix(0.866025,-0.5,0.5,0.866025,115.487,56.2463)">
                        <path d="M200,100C183.333,83.333 116.667,83.333 100,100C83.333,116.667 83.333,183.333 100,200C116.667,216.667 183.333,216.667 200,200C216.667,183.333 216.667,116.667 200,100Z"/>
                    </g>
                    <g transform="matrix(0.866025,-0.5,0.5,0.866025,192.987,190.48)">
                        <path d="M200,100C183.333,83.333 116.667,83.333 100,100C83.333,116.667 83.333,183.333 100,200C116.667,216.667 183.333,216.667 200,200C216.667,183.333 216.667,116.667 200,100Z"/>
                    </g>
                    <g transform="matrix(0.866025,-0.5,0.5,0.866025,270.487,324.714)">
                        <path d="M200,100C183.333,83.333 116.667,83.333 100,100C83.333,116.667 83.333,183.333 100,200C116.667,216.667 183.333,216.667 200,200C216.667,183.333 216.667,116.667 200,100Z"/>
                    </g>
                    <g transform="matrix(0.866025,-0.5,0.5,0.866025,325.056,114.23)">
                        <path d="M200,100C183.333,83.333 116.667,83.333 100,100C83.333,116.667 83.333,183.333 100,200C116.667,216.667 183.333,216.667 200,200C216.667,183.333 216.667,116.667 200,100Z"/>
                    </g>
                </g>
            </g>
        </g>
    </g>
</svg>
